# xmcd
#
# Track frame offsets: 
#        182
#        15650
#        31792
#        44742
#        57785
#        71895
#        85772
#        98942
#        114645
#        128405
#
# Disc length: 1893 seconds
#
# Revision: 2
# Processed by: cddbd v1.4PL0 Copyright (c) Steve Scherf et al.
# Submitted via: ExactAudioCopy v0.90b2
#
DISCID=7f07630a
DTITLE=Dan Seals - My Baby's Got Good Timin'
DYEAR=1900
DGENRE=Country
TTITLE0=My Baby's Got Good Timin'
TTITLE1=My Old Yellow Car
TTITLE2=You Really Go For The Heart
TTITLE3=She Thinks I Still Care
TTITLE4=One Friend
TTITLE5=God Must Be A Cowboy
TTITLE6=Everbody's Dream Girl
TTITLE7=After You
TTITLE8=I Won't Be Blue Anymore
TTITLE9=Who's Gonna Keep Me Warm
EXTD=
EXTT0=
EXTT1=
EXTT2=
EXTT3=
EXTT4=
EXTT5=
EXTT6=
EXTT7=
EXTT8=
EXTT9=
PLAYORDER=
